<?xml version="1.0" encoding="UTF-8"?>
<svg id="WattGuard" xmlns="http://www.w3.org/2000/svg" version="1.1" viewBox="0 0 1062.49 1132.66">
  <!-- Generator: Adobe Illustrator 30.2.1, SVG Export Plug-In . SVG Version: 2.1.1 Build 1)  -->
  <defs>
    <style>
      .st0 {
        fill: #fff;
      }

      .st1 {
        fill: #06f;
        fill-rule: evenodd;
      }
    </style>
  </defs>
  <rect class="st0" x="5.63" y="40.71" width="1051.24" height="1051.24" rx="325" ry="325"/>
  <path class="st1" d="M264.56,839.37l-21.22-12.51-23.32,14.27-34.29,20.27c-11.16,6.6-17.8,7.47-29.4.51l-59.73-35.83c-7.02-4.21-12.92-11.72-12.92-20.35l.04-75.73c0-5.81,4.68-10.75,7.87-14.76l22.65-14.15,38.7-23.65v-221.19l-21.43-13.81-34.87-21.23c-4.37-2.66-7.68-5.14-9.94-10.05l-3.05-6.63.25-78.88c.03-9.37,7.98-16.02,15.28-20.38l55.16-32.86c10.32-6.15,20.11-7.07,30.74-.79l56.99,33.63,26.56-15.47,55.15-32.94,37.27-22.29,27.97-16.76,37.27-23.08c2.17-1.34,3.28-4.37,3.32-6.71l.37-18.24.3-42.95c.07-10.12,7.77-16.97,15.73-21.78l44.05-26.61c16.99-10.26,26.58-17.14,45.01-6.17l46.03,27.4c14.91,8.87,23.45,13.35,23.66,30.36l.33,26.67.03,17.37c0,6.31-.87,12.98,1.47,19.05l43.89,26.45,143.56,85.39,31.56-18.43,26.81-15.54c7.11-4.12,16.09-5.25,23.69-1.5,6.67,3.29,12.86,6.91,19.28,10.77l44.93,27.06c5.4,3.25,11.36,10.45,11.37,17.56l.16,76.59c.02,7.48-5.1,15.23-11.12,18.92l-54.99,33.74c-2.66,1.63-3.13,3.78-3.13,6.84l.13,72.47c0,.33-.83,1.51-1.28,1.51l-29.62.11c-1.14,0-2.3,0-2.64-.33-.46-.45-.48-1.75-.48-2.88l-.09-73.34c.15-3.37-1.85-4.24-4.33-5.74l-51.68-31.34-69.53,42.27.56,18.53.11,70.8h95.27l105.63-.05-3.95-17.69-6.72-27.18-.38-1.48-.38-1.43c-.07-.27.11-1.22.35-1.13.36.13,1.47.59,2.01.89l23.58,13.46,30.1,17.4,38.79,22.93,9.47,5.44c.51.29,1.59,1.21,2.01,1.59.41.37-1.38,1.28-1.92,1.6l-14.2,8.62-26.51,15.82-42.89,25.7-5.69,3.31-12.76,7.57c-.33.19-1.22.41-1.54.49s-.19-1.23-.12-1.56l11.47-47.34h-202.13c-2.38,27.54-6.1,53.27-17.34,78.76l25.04,14.99,38.37,23.63,22.85,13.89,52.09-31.77c1.52-.92,4.25-3.24,4.25-4.98l.14-74.52c0-.59.84-2.11,1.44-2.11h32.62l.06,78.55c6.11,4.39,11.74,7.49,17.86,11.23l39.86,24.36c8.9,5.44,11.92,13.82,11.91,23.93l-.08,65.57c0,9.06-2.13,16.5-10.63,21.21l-62.7,34.75c-5.58,3.09-10.98,5.66-16.8,7.58-5.81,1.91-11.45.24-16.67-3l-21.4-13.33-10.53-6.38-7.21-4.45-19.05-12.03-15.58,8.6-85.23,48.31-62.28,35.51-31.73,18.44-.4,68.67c-.05,8.99-7.58,16.09-14.63,20.17l-26.4,15.29c-13.05,7.56-25.4,15.18-38.9,22.1-4.3,2.2-10.98,1.76-15.15-.4-13.35-6.9-25.46-14.39-38.33-21.94l-27.96-16.4c-7.11-4.18-13.48-11.56-13.5-20.38l-.21-66.9-36.06-22.54c-1.99-1.24-3.57-2.55-5.78-4.18M551.61,158.68c2.51,16.7-5.44,31.16-20.38,37.59l.22,25.66,42.08-25.44.03-64.26-46.42-27.55c-3.25-2.26-6.45-4.19-10.02-5.36l-55.23,33.09.06,63.99,42.13,25.44.09-25.88c-10.27-4.46-16.97-11.99-19.84-22.49-5.29-19.29,7.33-39.46,27.66-43.25,18.19-3.39,36.8,9.74,39.62,28.48h0ZM326.29,404.39l27.62-9.15c51.71-17.13,106.77-43.55,150.43-77.11l.05-59.65-26.15-15.96-30.67-17.95-27.67,16.01-142.18,84.25-19.78,11.38v62.58l51.59,31.03c1.15.69,3.15.94,4.02.69-1.93-10.34,3.93-23.19,12.74-26.1v-.02ZM723.32,431.49l54.9-32.94v-62.22l-34.73-20.88-39.49-23.34-82.24-48.93-33.03-19.08-57.48,34.47.02,59.5c15.37,11.33,30.56,21.25,47.04,30.77,31.96,17.64,64.63,32.35,99.07,44.12l25.61,8.75c4.61,1.58,9.48,3.16,12.98,6.7,6.03,6.1,6.68,14.31,7.38,23.08h-.03ZM843.12,391.62l-19.12,11.58,10.38,6.52,31.66,18.82,20.35-12.02,34.39-20.44.11-63.53-55.38-33.04-24.44,14.57-30.43,18c-1.27,3.36-.99,7.72-.95,11.35l.34,36.62,18.6-10.54c.99-.56,2.81-2.75,2.7-4.16-.82-11.51,5.08-23.36,14.1-29.5,10.3-7,22.89-8.23,33.87-2.86s17.77,14.81,19.51,25.32c2,12.08-1.87,23.35-10.55,31.55-12.61,11.9-31.55,12.77-45.13,1.77h0ZM192.37,392.05c-13.67,10.78-31.74,9.83-44.14-1.54-11.58-10.62-15.13-26.78-8.31-41.05,4.72-9.87,13.47-16.6,22.88-18.78,11.57-2.67,22.56.45,30.69,7.96,8.13,7.51,12.4,17.42,10.87,29.05l21.98,12.26.03-47.18-55.83-33.12-55.09,32.95-.07,63c4.01,3.25,8.27,5.36,12.68,8.01l38.57,23.17c3.06,1.83,5.17,1.59,8.11-.25l36.65-22.89c-2.5-3.31-13.06-7.21-19.01-11.6h0ZM508.44,794.34s23.79-9.13,47.75-25.2c6.4-4.3,25.82-16.39,25.82-16.39,20.19-13.25,39.31-28.14,56.42-45.25,23.71-23.71,41.28-51.96,49.67-84.53,4.98-19.29,7.43-38.58,7.43-58.56l.02-78.85-.77-51.75c-.03-1.84-1.26-5.37-3.11-6-18.24-6.13-35.8-11.82-53.61-19.03-20.55-8.32-39.84-17.48-59.44-27.77-21.13-11.1-40.99-22.7-60.41-37.38l-23.41,15.72-10.12,6.41c-32.76,20.18-66.99,37.14-103.46,49.55l-37.24,12.68c-1.17.4-2.62,3.02-2.63,4.33l-.63,39.24-.04,100.09c0,3.83.42,7.82.84,11.51l1.87,16.84c8.1,66.84,93.55,163.32,165.32,194.03M294,680.75l36.03-22.04c-5.25-12.22-9.28-24.02-11.65-37.22-4.17-23.21-6.23-45.61-5.72-69.3l.15-88.75-36.97-22.66-13.99-8.03-18.57-11.43-22.7,14.26-30.67,18.94c-3.11,1.92-3.37,3.79-3.32,7.18l.4,33.6.12,181.1,47.77,29.47,9.13,5.46,49.99-30.58h0ZM494.43,817.57c-95.14-40.34-152.72-134.33-152.72-134.33l-86.84,53.05,2.67,53.78c-.39,2.08.26,4.5,2.3,5.71l35.47,20.88,53.53,32.06,61.24,37.39,27.27,18.35,22.33-13.32.13-.08,33.84-21.4.78-52.08M525.37,816.95l-.33,31.5-.37,21.87,33.19,23.41,18.79,11.72,58.02-32.95,33.05-19.06,46.34-26.25,64.2-34.64v-34.9l-.02-22.92-33.05-20-31.37-18.97-18.26-12.52c-12.94,23.57-29.41,42.9-50.02,60.06-12.15,10.11-40.72,38.6-120.17,73.65M226.12,753.21l-21.81,12.96c1.12,6.47.1,12.76-2.81,18.93-7.27,15.41-25.18,22.94-41.14,17.85-16.04-5.11-26.58-20.69-24.15-37.83,2.27-16.06,15.25-28.83,32.39-30.01,8.54-.59,16.01,2.93,23.5,7.5l20.82-12.41-23.91-14.31-19.01-11.32-54.77,33.01.19,63.43,43.97,26.77c4,2.18,7.73,4.32,11.81,5.95l31.52-18.85,23.46-13.82-.07-47.84ZM809.68,769.25c-.03,10.38.5,20.05-.12,30.73,5.88,4.07,12.04,7.88,18.29,11.74l32.79,20.3c8.78-3.76,16.74-8.06,24.97-12.54l35.24-19.18.04-62.85-19.45-11.76-35.67-21.27-41.85,25.55,20.39,12.28c13.39-8.68,27.32-10.35,40.99-.95,16.53,11.36,19.87,35.69,6.61,50.98-12.61,14.53-34.14,15.95-48.37,4.3-9.09-7.44-13.87-18.89-12.16-31.25l-21.65-12.67-.04,16.58h0ZM518.38,908.05l-.28,25.35c15.48,7.63,23.78,23.81,20.6,40.42-2.35,12.23-11.05,21.86-21.46,25.74-12.66,4.72-25.52,2.36-34.99-6.15-8.86-7.97-13.55-18.4-12.14-30.48,1.52-13.07,9.99-24.1,21.93-30.14l-1.1-25.02-42.12,25.46.1,65.14,56.02,32.78,24.42-14.35,31.3-18.68-.05-64.67-42.21-25.43h0Z"/>
  <path class="st1" d="M530.74,577.29l-11.24,42.73-18.29-86.78-14.11-70.79c-1.3-6.55-5.39-11.28-11.81-11.46-7.3-.2-10.15,4.87-12.06,11.43l-26.51,90.73-26.47.07-15.12-.03-9.2.16-26.69.17.26-71.13.36-41.52,30.45-11.06c44.96-16.33,87.31-38.2,126.67-65.58,43.63,29.26,89.77,51.61,138.23,69.32l19.31,7.06.52,28.96.52,83.38c-19.51,1.78-35.03-.61-53.86.7l-22.02-.36-18.19-46.46-5.01-13.86c-1.7-4.69-6.46-8.68-11.33-8.31-5.32.41-10.42,3.22-11.94,8.88l-22.46,83.75h-.02ZM639.55,672.31c-49.09,62.41-130.43,101.47-130.43,101.47,0,0-82.56-53.19-121.03-120.29-21.52-37.53-25.63-76.88-25.63-76.88l85.32-.11c3.63,0,7.62-4.4,8.56-7.44l10.39-33.49,6.87-22.54,22.13,109.08,10.83,50.43c.85,3.93,7.26,7.17,10.55,7.29,7.06.27,10.68-5.25,12.24-11.21l15.86-60.39,20.27-76.27,13.62,36.08c1.63,4.32,4.84,7.51,9.31,8.54h82.51c-1.95,36.4-9.51,66.94-31.35,95.7"/>
</svg>